<?xml version="1.0" encoding="UTF-8"?> <svg xmlns="http://www.w3.org/2000/svg" xmlns:xlink="http://www.w3.org/1999/xlink" version="1.1" id="corp-mobile-icon-4" x="0px" y="0px" viewBox="0 0 33 33" style="enable-background:new 0 0 33 33;" xml:space="preserve"> <path id="Forma_1" style="fill:#0F91E3;" d="M27.5,27h-0.4V12.8c0-0.3-0.2-0.5-0.5-0.5h-3.9c-0.3,0-0.5,0.2-0.5,0.5l0,0V18 c0,0.3,0.2,0.5,0.5,0.5s0.5-0.2,0.5-0.5v-4.7h2.9v13.8h-2.9v-4.3c0-0.3-0.2-0.5-0.5-0.5s-0.5,0.2-0.5,0.5v4.3H21v-11 c0-0.3-0.2-0.5-0.5-0.5h-3.9c-0.3,0-0.5,0.2-0.5,0.5l0,0v11h-1.4v-8c0-0.3-0.2-0.5-0.5-0.5h-3.9c-0.3,0-0.5,0.2-0.5,0.5v8H8.6v-4.9 c0-0.3-0.2-0.5-0.5-0.5H4.2c-0.3,0-0.5,0.2-0.5,0.5l0,0v4.9H3.5c-0.3,0-0.5,0.2-0.5,0.5s0.2,0.5,0.5,0.5h24c0.3,0,0.5-0.2,0.5-0.5 C28,27.2,27.8,27,27.5,27z M7.8,27H4.9v-4.4h2.9C7.8,22.6,7.8,27,7.8,27z M13.8,27h-2.9v-7.5h2.9V27z M20.1,27h-2.9V16.5h2.9V27z M23.1,19.9c-0.2-0.2-0.5-0.2-0.7,0c-0.1,0.1-0.1,0.2-0.1,0.4c0,0.1,0.1,0.3,0.1,0.4c0.2,0.2,0.5,0.2,0.7,0c0.1-0.1,0.1-0.2,0.1-0.4 S23.2,20,23.1,19.9L23.1,19.9z M24.3,3c-2,0-3.7,1.7-3.7,3.7s1.7,3.7,3.7,3.7S28,8.7,28,6.7S26.3,3,24.3,3L24.3,3z M24.3,8.1 c-0.3,0-0.5-0.2-0.6-0.5c0-0.3-0.2-0.5-0.5-0.5s-0.5,0.2-0.5,0.5l0,0c0,0.6,0.4,1.2,1,1.4v0.4c-1.5-0.3-2.5-1.7-2.2-3.2 c0.2-1.1,1.1-2,2.2-2.2v0.4c-0.6,0.2-1,0.7-1,1.4c0,0.8,0.7,1.5,1.5,1.4c0.3,0,0.5,0.2,0.5,0.5S24.5,8.1,24.3,8.1L24.3,8.1z M24.8,9.4V9c0.6-0.2,1-0.7,1-1.4c0-0.8-0.7-1.5-1.5-1.4c-0.3,0-0.4-0.3-0.4-0.5c0-0.3,0.3-0.4,0.5-0.4s0.4,0.2,0.4,0.5 s0.2,0.5,0.5,0.5s0.5-0.2,0.5-0.5c0-0.6-0.4-1.2-1-1.4V4c1.5,0.3,2.5,1.7,2.2,3.2C26.8,8.3,25.9,9.2,24.8,9.4z M20.4,9.3h-1.9 c-0.3,0-0.5,0.2-0.5,0.5l0,0c0,0.3,0.2,0.5,0.5,0.5l0,0h0.7L14,15.5l-2.7-2.6c-0.2-0.2-0.5-0.2-0.7,0l-5.3,5.3 c-0.2,0.2-0.2,0.5,0,0.7l0,0c0.2,0.2,0.5,0.2,0.7,0l5-5l2.7,2.6c0.2,0.2,0.5,0.2,0.7,0l5.6-5.6v0.7c0,0.3,0.2,0.5,0.5,0.5 s0.5-0.2,0.5-0.5V9.7C20.9,9.5,20.7,9.3,20.4,9.3L20.4,9.3L20.4,9.3z M4.8,19.4c-0.2-0.2-0.5-0.2-0.7,0C4,19.5,4,19.6,4,19.8 c0,0.3,0.2,0.5,0.5,0.5S5,20.1,5,19.8C4.9,19.7,4.8,19.5,4.8,19.4L4.8,19.4z"></path> </svg> 