<?xml version="1.0" encoding="UTF-8"?> <svg xmlns="http://www.w3.org/2000/svg" xmlns:xlink="http://www.w3.org/1999/xlink" version="1.1" id="corp-mobile-icon-3" x="0px" y="0px" viewBox="0 0 33 33" style="enable-background:new 0 0 33 33;" xml:space="preserve"> <path style="fill:#0F91E3;" d="M27.6,13.7h-4.4V8.3c0-0.7-0.6-1.3-1.3-1.4l0,0H3.4C2.7,6.9,2.1,7.5,2,8.2l0,0v10.6 c0,0.7,0.6,1.3,1.4,1.4h4.4v5.4c0,0.7,0.6,1.3,1.4,1.4h18.5c0.7,0,1.3-0.6,1.4-1.4V15.1C29,14.3,28.4,13.7,27.6,13.7L27.6,13.7z M3.3,19.2c-0.2,0-0.3-0.1-0.3-0.3V8.4c0-0.2,0.1-0.3,0.3-0.3h18.5c0.2,0,0.3,0.1,0.3,0.3V19c0,0.2-0.1,0.3-0.3,0.3L3.3,19.2 L3.3,19.2z M27.9,25.7c0,0.2-0.1,0.3-0.3,0.3H9.2c-0.2,0-0.3-0.1-0.3-0.3V25h19V25.7L27.9,25.7L27.9,25.7z M27.9,23.9h-19v-1.6h19 V23.9L27.9,23.9L27.9,23.9z M27.9,21.2h-19v-0.9h13c0.7,0,1.3-0.6,1.4-1.4v-4.1h4.5c0.2,0,0.3,0.1,0.3,0.3L27.9,21.2L27.9,21.2z M19,9.2c-0.7,0.8-2,0.9-2.8,0.1l-0.1-0.1c-1.9,0.8-2.8,3-2,4.9s3,2.8,4.9,2s2.8-3,2-4.9C20.6,10.2,19.9,9.5,19,9.2L19,9.2z M16.1,12c-0.5,0-0.9-0.4-0.9-0.9s0.4-0.9,0.9-0.9s0.9,0.4,0.9,0.9S16.6,12,16.1,12L16.1,12L16.1,12z M19,12c-0.5,0-0.9-0.4-0.9-0.9 s0.4-0.9,0.9-0.9s0.9,0.4,0.9,0.9S19.5,12,19,12L19,12L19,12z M7.4,16H4.8c-0.3,0-0.5,0.2-0.5,0.5S4.5,17,4.8,17l0,0h2.6 c0.3,0,0.5-0.2,0.5-0.5S7.7,16,7.4,16L7.4,16z M11.7,16H9.1c-0.3,0-0.5,0.2-0.5,0.5S8.8,17,9.1,17l0,0h2.6c0.1,0.3,1.9,0.1,2.2,0 c0.3-0.1,0.5-0.4,0.4-0.7c-0.1-0.3-0.4-0.5-0.7-0.4C13.4,16.1,13.3,16.2,11.7,16L11.7,16z M16.1,16h-2.6c-0.3,0-0.5,0.2-0.5,0.5 s0.2,0.5,0.5,0.5l0,0h2.6c0.3,0,0.5-0.2,0.5-0.5C16.7,16.2,16.4,16,16.1,16L16.1,16z M20.5,16h-2.6c-0.3,0-0.5,0.2-0.5,0.5 s0.2,0.5,0.5,0.5l0,0h2.6c0.3,0,0.5-0.2,0.5-0.5S20.8,16,20.5,16L20.5,16L20.5,16z M6.6,9.3H5.5c-0.6,0-1.1,0.5-1.1,1.1v1.1 c0,0.6,0.5,1.1,1.1,1.1h1.1c0.6,0,1.1-0.5,1.1-1.1v-1.1C7.6,9.8,7.2,9.3,6.6,9.3L6.6,9.3z M6.6,11.6H5.5v-1.1h1.1V11.6L6.6,11.6z"></path> </svg> 