<?xml version="1.0" encoding="UTF-8"?> <svg xmlns="http://www.w3.org/2000/svg" xmlns:xlink="http://www.w3.org/1999/xlink" version="1.1" id="corp-mobile-icon-2" x="0px" y="0px" viewBox="0 0 33 33" style="enable-background:new 0 0 33 33;" xml:space="preserve"> <path id="Forma_1" style="fill:#0F91E3;" d="M21.4,20.7c-0.5-0.1-0.9-0.6-0.9-1.1c0.1-0.5,0.6-0.9,1.1-0.9c0.5,0.1,0.9,0.5,0.9,1 c0,0.3,0.2,0.5,0.5,0.5s0.5-0.2,0.5-0.5l0,0c0-0.9-0.7-1.8-1.6-2v-0.2c0-0.3-0.2-0.5-0.5-0.5s-0.5,0.2-0.5,0.5l0,0v0.3 c-0.9,0.2-1.6,1-1.6,2c0,1.1,1,2,2.1,2l0,0c0.5,0.1,0.9,0.6,0.9,1.1s-0.6,0.9-1.1,0.9c-0.5-0.1-0.9-0.5-0.9-1c0-0.3-0.2-0.5-0.5-0.5 s-0.5,0.2-0.5,0.5l0,0c0,1,0.7,1.8,1.6,2V25c0,0.3,0.2,0.5,0.5,0.5s0.5-0.2,0.5-0.5l0,0v-0.2c0.9-0.2,1.6-1,1.6-2 C23.5,21.6,22.5,20.7,21.4,20.7z M26.9,17.7c-0.7-1-1.6-1.9-2.7-2.4c-0.3-0.1-0.6,0-0.7,0.2c-0.1,0.3,0,0.6,0.2,0.7 c1.9,1,3.2,2.9,3.2,5.1c0,0.9-0.2,1.8-0.7,2.7c-0.1,0.2,0,0.6,0.2,0.7s0.6,0,0.7-0.2C28.3,22.3,28.2,19.7,26.9,17.7z M22.2,14.6 L22.2,14.6c-0.3,0-0.5,0.2-0.5,0.5s0.2,0.5,0.5,0.5l0,0c0.3,0,0.5-0.2,0.5-0.5C22.7,14.8,22.4,14.6,22.2,14.6z M18.9,26.4 c-2.8-1.4-4-4.8-2.6-7.6c0,0,0-0.1,0.1-0.1c0.1-0.2,0-0.6-0.2-0.7s-0.5,0-0.7,0.2l0,0c-1.7,3.3-0.5,7.3,2.8,9.1 c0.1,0,0.1,0.1,0.2,0.1s0.1,0,0.2,0c0.2,0,0.4-0.1,0.5-0.3C19.3,26.8,19.2,26.5,18.9,26.4z M20.6,26.9L20.6,26.9 c-0.3,0-0.5,0.2-0.5,0.5s0.2,0.5,0.5,0.5l0,0c0.3,0,0.5-0.2,0.5-0.5C21.1,27.1,20.9,26.9,20.6,26.9L20.6,26.9L20.6,26.9z M23.7,12.9 c-0.1-0.1-0.1-0.3-0.2-0.4h1.3c1.3,0,2.4-1.1,2.4-2.4s-1.1-2.4-2.4-2.4h-4.1c0.7-1.1,0.5-2.6-0.6-3.3C19.7,4.1,19.3,4,18.8,4H6.3 C5,4,3.9,5.1,3.9,6.4S5,8.8,6.3,8.8h4.1c-0.5,0.8-0.5,1.9,0,2.7H9.1c-1.3,0-2.4,1.1-2.3,2.4c0,0.7,1,1.7,1,1.7s-0.9,0.7-0.9,1.8 s0.9,1.9,0.9,1.9s-1,0.7-1,1.9s0.9,1.9,0.9,1.9s-0.9,0.5-0.9,1.8s1,2.4,2.3,2.4h6c1.6,1.8,3.9,2.8,6.3,2.8c4.8-0.1,8.7-4,8.6-8.9 C29.9,17.3,27.4,13.9,23.7,12.9L23.7,12.9z M24.8,8.7c0.7,0,1.3,0.6,1.3,1.3c0,0.7-0.6,1.3-1.3,1.3H12.3c-0.7,0-1.3-0.6-1.3-1.3 c0-0.7,0.6-1.3,1.3-1.3H24.8z M6.3,7.7C5.6,7.7,5,7.1,5,6.4s0.6-1.3,1.3-1.3h12.4c0.7,0,1.3,0.6,1.3,1.3s-0.6,1.3-1.3,1.3H6.3 L6.3,7.7z M9.1,12.4h12.4c0.2,0,0.4,0,0.6,0.1c-0.2,0-0.5,0-0.7,0c-2.3,0-4.5,0.9-6.1,2.6H9.1c-0.7,0-1.3-0.7-1.3-1.4 C7.8,13,8.4,12.5,9.1,12.4L9.1,12.4z M9.1,16.1h5.3c-0.6,0.8-1,1.7-1.3,2.7h-4c-0.7,0-1.3-0.6-1.3-1.3C7.7,16.7,8.3,16.1,9.1,16.1 L9.1,16.1z M9.1,19.8h3.8c-0.1,0.5-0.1,1-0.1,1.4s0,0.8,0.1,1.2H9.2c-0.7,0-1.3-0.6-1.3-1.3S8.3,19.8,9.1,19.8L9.1,19.8z M7.8,24.9 c0-0.7,0.6-1.3,1.3-1.3h4c0.3,1,0.7,1.9,1.2,2.7c0,0-4.6,0-5.2,0S7.8,25.6,7.8,24.9z M21.4,29c-4.3,0-7.7-3.4-7.8-7.6 c0-4.3,3.4-7.7,7.6-7.8c4.3,0,7.7,3.4,7.8,7.6v0.1C29,25.5,25.6,28.9,21.4,29L21.4,29z"></path> </svg> 